<svg width="143" height="204" viewBox="0 0 143 204" fill="none" xmlns="http://www.w3.org/2000/svg">
<path d="M79.1729 167.233C79.1729 167.233 80.5898 170.482 81.3398 171.232L85.8398 174.232L90.5068 176.731L97.6729 178.898L101.007 179.564L104.007 181.563L105.84 184.063L112.173 187.396L117.673 189.729L123.507 192.395L126.507 195.395H129.84L132.257 197.81L135.34 199.394H140.173L142.007 201.893V198.56L141.173 194.061L139.507 187.062L138.84 181.73L135.673 178.731L131.339 174.399L128.507 173.232L126.84 167.233L128.173 164.233V161.234L131.84 160.734V158.735L127.007 157.568L125.59 156.151L122.673 155.068L119.34 149.903L118.173 143.237L119.84 139.571L122.673 137.738L124.673 136.406L123.507 133.406L120.173 130.74L114.507 131.407L112.09 128.99L109.007 128.24L105.507 122.408L104.507 118.409L107.84 117.409L109.173 114.243L105.923 110.994H103.173L101.465 112.701L97.1729 111.743L92.8398 108.744L92.0068 104.911L87.6738 100.579L86.5068 103.078L84.9229 104.661V106.077L86.1729 108.91H81.5068L78.7568 106.16L74.1729 103.745L73.6729 100.079L73.0068 95.4125L69.8398 92.2461L67.5068 89.9135L65.5068 87.9139L63.0068 83.7477L64.8398 81.9151V77.5829H66.8398L69.9229 74.5005L66.8398 73.0837V69.9173L65.0068 65.0852L67.0068 64.9183L69.3398 67.2508L72.5068 68.7505V66.084L69.6738 61.7519V59.2523L71.0068 54.5872L69.1738 52.7546L72.6738 47.7555L74.8398 42.7565L79.0068 41.4237L82.0068 42.9234L84.8398 40.4239L83.0068 38.5903L80.1738 35.4238L78.5068 28.7581V23.926L75.3398 21.0936L73.6738 15.9275L72.8398 10.5955L71.1729 6.59629L70.1729 1.93018L68.3599 4.52369L65.4448 4.73165L63.3629 2.65004L60.8648 3.48288L60.1359 7.75007L58.8868 12.0173L56.3878 15.8685C56.3878 15.8685 57.8458 17.3453 57.8458 18.0541C57.8458 18.763 56.1798 23.1542 56.1798 23.1542L54.5148 26.9015L51.7039 28.5671L49.8298 26.6935L47.3318 27.5263L45.0418 29.8159L42.1268 30.3368L39.5758 33.7192L37.5468 31.6906L36.5059 28.8801L35.1519 26.2786L34.2148 22.8432L32.1328 22.2183L29.2698 24.248L27.5518 25.9656L25.1578 24.9248L21.2018 25.5497L22.0349 28.0482L20.6808 30.0259L18.9108 29.506L14.9548 30.7547V33.6692L13.1318 34.9729L12.0408 38.4573L9.23083 38.2493L5.89984 40.7478L7.14886 41.9966L5.48285 43.6623L2.77686 45.119L1.31885 48.1374V51.0519L2.56683 52.4066L6.75385 52.8436L6.87885 54.5932L7.94183 55.656L7.12885 57.9686L11.1288 59.7182L11.6288 62.2178L15.6288 61.4679L16.8788 64.4674L19.6288 65.5921C19.6288 65.5921 19.7538 67.3418 19.7538 67.8417C19.7538 68.3416 21.8168 69.9043 21.8168 69.9043L24.2548 69.2165H27.1298L27.6298 71.2161H29.5048L30.8798 72.8408L29.8798 76.4651H31.3798L32.5048 74.7154L33.6298 75.8402V78.0898L37.0878 78.5067L38.6708 76.2571L40.1708 76.4241L40.5048 74.2575H37.1708L34.4208 71.508L31.5038 68.5916L29.5048 66.7589L30.5048 64.0924V60.5931L34.1708 58.5935L36.7538 56.011L37.8378 57.0947L34.6708 60.0932V63.9255L38.1708 66.092L40.5048 69.0915L42.4208 71.0081L44.5048 71.758H46.6708L48.8378 75.9242L50.8378 77.9238V80.7563V83.0888L49.6708 87.0881L49.8378 90.4204L51.8378 92.0871L53.8378 98.253L55.5048 102.419L57.0048 107.585L58.3378 113.084L61.5048 117.25L63.5048 123.416L64.3378 128.748L66.0048 133.747L64.7548 134.997L63.2548 136.497L64.8378 139.246L63.6708 141.746L62.2538 143.162V144.579L65.3378 145.245L68.1708 149.244L68.6708 153.078L71.0038 155.411L71.0048 158.91L74.3378 162.41L79.1729 167.233Z" fill="#FFB800" stroke="white"/>
</svg>
