<svg width="143" height="204" fill="none" xmlns="http://www.w3.org/2000/svg"><path d="M79.173 167.233s1.417 3.249 2.167 3.999l4.5 3 4.667 2.499 7.166 2.167 3.334.666 3 1.999 1.833 2.5 6.333 3.333 5.5 2.333 5.834 2.666 3 3h3.333l2.417 2.415 3.083 1.584h4.833l1.834 2.499v-3.333l-.834-4.499-1.666-6.999-.667-5.332-3.167-2.999-4.334-4.332-2.832-1.167-1.667-5.999 1.333-3v-2.999l3.667-.5v-1.999l-4.833-1.167-1.417-1.417-2.917-1.083-3.333-5.165-1.167-6.666 1.667-3.666 2.833-1.833 2-1.332-1.166-3-3.334-2.666-5.666.667-2.417-2.417-3.083-.75-3.5-5.832-1-3.999 3.333-1 1.333-3.166-3.25-3.249h-2.75l-1.708 1.707-4.292-.958-4.333-2.999-.833-3.833-4.333-4.332-1.167 2.499-1.584 1.583v1.416l1.25 2.833h-4.666l-2.75-2.75-4.584-2.415-.5-3.666-.666-4.666-3.167-3.167-2.333-2.332-2-2-2.5-4.166 1.833-1.833v-4.332h2l3.083-3.082-3.083-1.417v-3.167l-1.833-4.832 2-.167 2.333 2.333 3.167 1.5v-2.667l-2.833-4.332v-2.5l1.333-4.665-1.833-1.832 3.5-5 2.166-4.998 4.167-1.333 3 1.5 2.833-2.5-1.833-1.834-2.833-3.166-1.667-6.666v-4.832l-3.167-2.832-1.666-5.167-.834-5.332-1.667-3.999-1-4.666-1.813 2.594-2.915.208-2.082-2.082-2.498.833-.73 4.267-1.248 4.267-2.5 3.851s1.459 1.477 1.459 2.186c0 .709-1.666 5.1-1.666 5.1l-1.665 3.747-2.811 1.666-1.874-1.873-2.498.832-2.29 2.29-2.915.52-2.551 3.383-2.03-2.028-1.04-2.81-1.354-2.602-.937-3.436-2.082-.625-2.863 2.03-1.718 1.718-2.394-1.041-3.956.625.833 2.498-1.354 1.978-1.77-.52-3.956 1.249v2.914l-1.823 1.304-1.091 3.484-2.81-.208L5.9 40.748l1.249 1.249-1.666 1.665-2.706 1.457-1.458 3.018v2.915l1.248 1.355 4.187.437.125 1.75 1.063 1.062-.813 2.313 4 1.75.5 2.499 4-.75 1.25 3 2.75 1.124s.125 1.75.125 2.25 2.063 2.062 2.063 2.062l2.438-.688h2.875l.5 2h1.875l1.375 1.625-1 3.624h1.5l1.125-1.75 1.125 1.125v2.25l3.458.417 1.583-2.25 1.5.167.334-2.167H37.17l-2.75-2.749-2.917-2.916-2-1.833 1-2.667v-3.499l3.667-2 2.583-2.582 1.084 1.084-3.167 2.998v3.832l3.5 2.167 2.334 3 1.916 1.916 2.084.75h2.166l2.167 4.166 2 2v5.165l-1.167 4 .167 3.331 2 1.667 2 6.166 1.667 4.166 1.5 5.166 1.333 5.499 3.167 4.166 2 6.166.833 5.332 1.667 4.999-1.25 1.25-1.5 1.5 1.583 2.749-1.167 2.5-1.417 1.416v1.417l3.084.666 2.833 3.999.5 3.834 2.333 2.333v3.499l3.334 3.5 4.835 4.823z" fill="#FFB800" stroke="#fff"/></svg>